<?xml version="1.0" encoding="utf-8"?>
<!-- Generator: Adobe Illustrator 23.0.1, SVG Export Plug-In . SVG Version: 6.00 Build 0)  -->
<svg version="1.1" id="Layer_1" width="220" height="54" xmlns="http://www.w3.org/2000/svg" xmlns:xlink="http://www.w3.org/1999/xlink" x="0px" y="0px"
	 viewBox="0 0 220 54" style="enable-background:new 0 0 220 54;" xml:space="preserve">
<style type="text/css">
	.st0{fill:#8A3699;stroke:#D1D2D2;stroke-width:0.5;stroke-miterlimit:10;}
	.st1{enable-background:new    ;}
	.st2{fill:#333333;}
	.st3{fill:#033333;}
</style>
<g>
	<g>
		<g>
			<path class="st0" d="M0.1,0h7.7v18.3h45.6c0,0,5-0.2,4.9-5.3c-0.1-5.1-3.8-5.5-4.8-5.5s-17.2,0-17.2,0v9.3h-8V0h25.9
				c0,0,11.8,0.1,11.8,12.9S54.6,26,54.6,26H0.1V0z"/>
		</g>
		<g>
			<path class="st0" d="M0,53.5h7.8V35.1h45.6c0,0,5,0.2,4.9,5.3c-0.1,5.1-3.8,5.5-4.8,5.5s-17.2,0-17.2,0v-9.3h-8.1v16.8H54
				c0,0,11.8-0.1,11.8-12.9S54.4,27.5,54.4,27.5H0V53.5z"/>
		</g>
	</g>
	<g class="st1">
		<path class="st2" d="M103.8,35.9h-6.9V13.7L87.5,28L78,13.7v22.2h-6.9V1.1H78l9.5,14.3L97,1.1h6.8V35.9z"/>
		<path class="st2" d="M138.1,36h-7.6l-2.5-5.4h-11.5L114,36h-7.5l15.8-34.9L138.1,36z M124.8,23.5l-2.5-5.7l-2.6,5.7H124.8z"/>
		<path class="st2" d="M167.2,1.1l-9.3,17.4l9.3,17.4h-7.8L154,25.8l-5.4,10.1h-7.8l9.3-17.4l-9.3-17.4h7.8l5.4,10l5.4-10H167.2z"/>
	</g>
	<g class="st1">
		<path class="st3" d="M79.3,54h-8.4V40.7h8.4v2.7h-6V46h3v2.7h-3v2.6h6V54z"/>
		<path class="st3" d="M91.1,40.7L85.7,54l-5.5-13.3h2.7l2.8,6.8l2.8-6.8H91.1z"/>
		<path class="st3" d="M99.8,54h-8.4V40.7h8.4v2.7h-6V46h3v2.7h-3v2.6h6V54z"/>
		<path class="st3" d="M111.2,54h-2.4l-5.2-8.5V54h-2.4V40.7h2.4l5.2,8.5v-8.5h2.4V54z"/>
		<path class="st3" d="M122.6,43.4h-3.8V54h-2.4V43.4h-3.9v-2.7h10.1V43.4z"/>
		<path class="st3" d="M137.7,43.4l-2.1,1.2c-0.1-0.2-0.2-0.4-0.4-0.6c-0.2-0.2-0.3-0.3-0.5-0.4c-0.2-0.1-0.3-0.2-0.5-0.2
			c-0.2,0-0.3-0.1-0.5-0.1c-0.2,0-0.3,0-0.5,0c-0.2,0-0.3,0.1-0.5,0.2c-0.1,0.1-0.2,0.2-0.3,0.4c-0.1,0.2-0.1,0.4-0.1,0.6
			c0,0.2,0.1,0.4,0.2,0.6c0.1,0.2,0.3,0.4,0.5,0.5c0,0,0.1,0.1,0.1,0.1c0,0,0.1,0.1,0.1,0.1c0.2,0.1,0.5,0.3,0.7,0.4
			c0.2,0.1,0.5,0.3,0.7,0.4c0.1,0,0.1,0.1,0.2,0.1c0.1,0,0.1,0.1,0.2,0.1c0.1,0,0.2,0.1,0.3,0.2c0.1,0.1,0.2,0.1,0.3,0.2
			c0.3,0.2,0.6,0.4,0.8,0.7s0.4,0.5,0.5,0.8c0.1,0.3,0.2,0.6,0.2,0.9c0,0.3,0.1,0.6,0.1,0.9c0,0.3,0,0.7-0.1,1
			c-0.1,0.3-0.2,0.6-0.4,0.9c-0.2,0.3-0.4,0.5-0.7,0.8c-0.3,0.2-0.6,0.4-1.1,0.6c-0.1,0-0.2,0.1-0.3,0.1c-0.1,0-0.3,0.1-0.4,0.1
			c-0.1,0-0.3,0-0.4,0c-0.1,0-0.3,0-0.4,0c-0.1,0-0.2,0-0.3,0c-0.1,0-0.2,0-0.2,0c-0.1,0-0.1,0-0.2,0c-0.2,0-0.5-0.1-0.8-0.2
			c-0.3-0.1-0.6-0.2-0.8-0.4c-0.3-0.2-0.5-0.4-0.8-0.6c-0.3-0.3-0.5-0.6-0.7-0.9c0-0.1-0.1-0.1-0.1-0.2c0-0.1-0.1-0.2-0.1-0.2l2-1.1
			h0c0.1,0.2,0.2,0.4,0.4,0.6c0.2,0.2,0.3,0.3,0.5,0.4c0.2,0.1,0.3,0.2,0.5,0.2c0.2,0,0.3,0.1,0.5,0.1c0.2,0,0.3,0,0.5,0
			c0.2,0,0.3-0.1,0.5-0.2c0.1-0.1,0.2-0.2,0.3-0.4c0.1-0.2,0.1-0.4,0.1-0.6c0-0.5-0.3-1-0.9-1.3c0,0-0.1-0.1-0.2-0.1
			c-0.1-0.1-0.2-0.1-0.4-0.2c-0.1-0.1-0.3-0.2-0.4-0.2c-0.1-0.1-0.3-0.2-0.4-0.2c0,0-0.1-0.1-0.2-0.1c-0.1,0-0.1-0.1-0.2-0.1
			c-0.1-0.1-0.2-0.1-0.3-0.2c-0.1-0.1-0.2-0.1-0.3-0.2c-0.3-0.2-0.6-0.4-0.8-0.7c-0.2-0.3-0.4-0.5-0.5-0.8c-0.1-0.3-0.2-0.6-0.3-0.9
			c0-0.3-0.1-0.6-0.1-0.9c0,0,0-0.1,0-0.3c0-0.2,0-0.3,0-0.5c0,0,0-0.1,0-0.2c0-0.1,0-0.1,0-0.2c0-0.1,0.1-0.1,0.1-0.2
			c0-0.1,0.1-0.2,0.1-0.3c0.1-0.2,0.2-0.4,0.4-0.6c0.1-0.2,0.3-0.3,0.5-0.5c0.2-0.1,0.3-0.3,0.5-0.4c0.2-0.1,0.3-0.2,0.5-0.3
			c0.2-0.1,0.5-0.2,0.8-0.2c0.3,0,0.5-0.1,0.8-0.1c0.1,0,0.2,0,0.3,0c0.1,0,0.2,0,0.2,0c0.1,0,0.2,0,0.2,0c0.2,0,0.5,0.1,0.8,0.2
			c0.3,0.1,0.6,0.2,0.8,0.4c0.3,0.2,0.5,0.4,0.8,0.7c0.3,0.3,0.5,0.6,0.7,0.9c0,0.1,0.1,0.1,0.1,0.2
			C137.7,43.3,137.7,43.4,137.7,43.4z"/>
		<path class="st3" d="M150.4,47.4c0,0.9-0.2,1.8-0.5,2.6c-0.3,0.8-0.7,1.5-1.3,2.1c-0.5,0.6-1.2,1.1-1.9,1.4
			c-0.7,0.3-1.5,0.5-2.3,0.5s-1.6-0.2-2.3-0.5c-0.7-0.3-1.3-0.8-1.9-1.4c-0.5-0.6-1-1.3-1.3-2.1c-0.3-0.8-0.5-1.7-0.5-2.6
			c0-0.9,0.2-1.8,0.5-2.6c0.3-0.8,0.7-1.5,1.3-2.1c0.5-0.6,1.2-1.1,1.9-1.4c0.7-0.3,1.5-0.5,2.3-0.5c0.8,0,1.6,0.2,2.3,0.5
			c0.7,0.4,1.3,0.8,1.9,1.4c0.5,0.6,1,1.3,1.3,2.1C150.3,45.6,150.4,46.5,150.4,47.4z M148,47.4c0-0.3,0-0.7-0.1-1.1
			s-0.2-0.7-0.4-1.1c-0.2-0.3-0.4-0.6-0.7-0.9c-0.3-0.3-0.7-0.5-1.1-0.7c-0.1,0-0.2-0.1-0.3-0.1c-0.1,0-0.2,0-0.3-0.1
			c-0.1,0-0.2,0-0.3-0.1c-0.1,0-0.2,0-0.2,0c-0.2,0-0.5,0-0.8,0.1c-0.3,0.1-0.5,0.2-0.8,0.3c-0.3,0.2-0.5,0.4-0.8,0.6
			c-0.2,0.2-0.5,0.5-0.6,0.9c-0.2,0.4-0.4,0.8-0.4,1.2c0,0.1,0,0.3-0.1,0.4c0,0.1,0,0.3,0,0.4c0,0.5,0.1,1,0.3,1.5
			c0.2,0.5,0.4,0.9,0.8,1.3c0.3,0.4,0.7,0.6,1.1,0.9c0.4,0.2,0.9,0.3,1.4,0.3c0.5,0,0.9-0.1,1.4-0.3c0.4-0.2,0.8-0.5,1.1-0.8
			s0.6-0.8,0.8-1.2C147.9,48.4,148,47.9,148,47.4z"/>
		<path class="st3" d="M160.1,54h-8.4V40.7h2.4v10.6h6V54z"/>
		<path class="st3" d="M171.3,48.7c0,0,0,0.1,0,0.2c0,0.1,0,0.2,0,0.3c-0.1,0.4-0.1,0.8-0.3,1.2c-0.1,0.4-0.3,0.8-0.5,1.1
			c-0.2,0.3-0.5,0.7-0.8,1c-0.3,0.3-0.6,0.6-0.9,0.7c-0.1,0-0.2,0.1-0.3,0.2c-0.1,0.1-0.2,0.1-0.3,0.2c-0.3,0.1-0.6,0.2-0.9,0.3
			c-0.3,0.1-0.6,0.1-1,0.1c-0.2,0-0.3,0-0.6,0c-0.2,0-0.4-0.1-0.6-0.1c-0.4-0.1-0.7-0.2-1.1-0.4c-0.4-0.2-0.7-0.5-1.1-0.8
			c-0.3-0.3-0.5-0.6-0.8-1c-0.2-0.3-0.4-0.7-0.5-1c-0.1-0.1-0.1-0.3-0.2-0.6c0-0.1,0-0.1-0.1-0.2c0-0.1,0-0.1,0-0.2
			c0-0.1,0-0.2,0-0.3c0-0.1,0-0.2,0-0.3c0-0.1,0-0.2,0-0.2c0-0.1,0-0.1,0-0.1v-8.1h2.4v8c0,0,0,0,0,0.1c0,0,0,0,0,0.1
			c0,0.1,0,0.2,0.1,0.3c0,0.1,0.1,0.2,0.1,0.3c0.3,0.7,0.6,1.1,1,1.4c0.4,0.3,0.9,0.4,1.3,0.4c0.2,0,0.5,0,0.7-0.1
			c0.2-0.1,0.5-0.2,0.7-0.4c0.2-0.2,0.4-0.4,0.6-0.7c0.2-0.3,0.3-0.6,0.4-0.9c0-0.1,0-0.2,0.1-0.3c0-0.1,0-0.2,0-0.2v-8h2.4V48.7z"
			/>
		<path class="st3" d="M182.8,43.4h-3.8V54h-2.4V43.4h-3.9v-2.7h10.1V43.4z"/>
		<path class="st3" d="M186.5,54H184V40.7h2.4V54z"/>
		<path class="st3" d="M199.2,47.4c0,0.9-0.2,1.8-0.5,2.6c-0.3,0.8-0.7,1.5-1.3,2.1c-0.5,0.6-1.2,1.1-1.9,1.4
			c-0.7,0.3-1.5,0.5-2.3,0.5c-0.8,0-1.6-0.2-2.3-0.5c-0.7-0.3-1.3-0.8-1.9-1.4c-0.5-0.6-1-1.3-1.3-2.1c-0.3-0.8-0.5-1.7-0.5-2.6
			c0-0.9,0.2-1.8,0.5-2.6c0.3-0.8,0.7-1.5,1.3-2.1c0.5-0.6,1.2-1.1,1.9-1.4c0.7-0.3,1.5-0.5,2.3-0.5c0.8,0,1.6,0.2,2.3,0.5
			c0.7,0.4,1.3,0.8,1.9,1.4c0.5,0.6,1,1.3,1.3,2.1C199,45.6,199.2,46.5,199.2,47.4z M196.7,47.4c0-0.3,0-0.7-0.1-1.1
			c-0.1-0.4-0.2-0.7-0.4-1.1c-0.2-0.3-0.4-0.6-0.7-0.9c-0.3-0.3-0.7-0.5-1.1-0.7c-0.1,0-0.2-0.1-0.3-0.1c-0.1,0-0.2,0-0.3-0.1
			c-0.1,0-0.2,0-0.3-0.1c-0.1,0-0.2,0-0.2,0c-0.2,0-0.5,0-0.8,0.1c-0.3,0.1-0.5,0.2-0.8,0.3c-0.3,0.2-0.5,0.4-0.8,0.6
			s-0.5,0.5-0.6,0.9c-0.2,0.4-0.4,0.8-0.4,1.2c0,0.1,0,0.3-0.1,0.4c0,0.1,0,0.3,0,0.4c0,0.5,0.1,1,0.3,1.5c0.2,0.5,0.4,0.9,0.8,1.3
			c0.3,0.4,0.7,0.6,1.1,0.9c0.4,0.2,0.9,0.3,1.4,0.3c0.5,0,0.9-0.1,1.4-0.3c0.4-0.2,0.8-0.5,1.1-0.8c0.3-0.4,0.6-0.8,0.8-1.2
			C196.7,48.4,196.7,47.9,196.7,47.4z"/>
		<path class="st3" d="M210.5,54h-2.4l-5.2-8.5V54h-2.4V40.7h2.4l5.2,8.5v-8.5h2.4V54z"/>
		<path class="st3" d="M220,43.4l-2.1,1.2c-0.1-0.2-0.2-0.4-0.4-0.6c-0.2-0.2-0.3-0.3-0.5-0.4c-0.2-0.1-0.3-0.2-0.5-0.2
			s-0.3-0.1-0.5-0.1c-0.2,0-0.3,0-0.5,0c-0.2,0-0.3,0.1-0.5,0.2c-0.1,0.1-0.2,0.2-0.3,0.4c-0.1,0.2-0.1,0.4-0.1,0.6
			c0,0.2,0.1,0.4,0.2,0.6c0.1,0.2,0.3,0.4,0.5,0.5c0,0,0.1,0.1,0.1,0.1c0,0,0.1,0.1,0.1,0.1c0.2,0.1,0.5,0.3,0.7,0.4
			c0.2,0.1,0.5,0.3,0.7,0.4c0.1,0,0.1,0.1,0.2,0.1c0.1,0,0.1,0.1,0.2,0.1c0.1,0,0.2,0.1,0.3,0.2c0.1,0.1,0.2,0.1,0.3,0.2
			c0.3,0.2,0.6,0.4,0.8,0.7s0.4,0.5,0.5,0.8c0.1,0.3,0.2,0.6,0.2,0.9c0,0.3,0.1,0.6,0.1,0.9c0,0.3,0,0.7-0.1,1
			c-0.1,0.3-0.2,0.6-0.4,0.9c-0.2,0.3-0.4,0.5-0.7,0.8c-0.3,0.2-0.6,0.4-1.1,0.6c-0.1,0-0.2,0.1-0.3,0.1c-0.1,0-0.3,0.1-0.4,0.1
			c-0.1,0-0.3,0-0.4,0c-0.1,0-0.3,0-0.4,0c-0.1,0-0.2,0-0.3,0c-0.1,0-0.2,0-0.2,0c-0.1,0-0.1,0-0.2,0c-0.2,0-0.5-0.1-0.8-0.2
			c-0.3-0.1-0.6-0.2-0.8-0.4c-0.3-0.2-0.5-0.4-0.8-0.6c-0.3-0.3-0.5-0.6-0.7-0.9c0-0.1-0.1-0.1-0.1-0.2c0-0.1-0.1-0.2-0.1-0.2l2-1.1
			h0c0.1,0.2,0.2,0.4,0.4,0.6c0.2,0.2,0.3,0.3,0.5,0.4c0.2,0.1,0.3,0.2,0.5,0.2c0.2,0,0.3,0.1,0.5,0.1c0.2,0,0.3,0,0.5,0
			s0.3-0.1,0.5-0.2c0.1-0.1,0.2-0.2,0.3-0.4c0.1-0.2,0.1-0.4,0.1-0.6c0-0.5-0.3-1-0.9-1.3c0,0-0.1-0.1-0.2-0.1
			c-0.1-0.1-0.2-0.1-0.4-0.2c-0.1-0.1-0.3-0.2-0.4-0.2c-0.1-0.1-0.3-0.2-0.4-0.2c0,0-0.1-0.1-0.2-0.1c-0.1,0-0.1-0.1-0.2-0.1
			c-0.1-0.1-0.2-0.1-0.3-0.2c-0.1-0.1-0.2-0.1-0.3-0.2c-0.3-0.2-0.6-0.4-0.8-0.7c-0.2-0.3-0.4-0.5-0.5-0.8c-0.1-0.3-0.2-0.6-0.3-0.9
			c0-0.3-0.1-0.6-0.1-0.9c0,0,0-0.1,0-0.3c0-0.2,0-0.3,0-0.5c0,0,0-0.1,0-0.2c0-0.1,0-0.1,0-0.2c0-0.1,0.1-0.1,0.1-0.2
			c0-0.1,0.1-0.2,0.1-0.3c0.1-0.2,0.2-0.4,0.4-0.6c0.1-0.2,0.3-0.3,0.5-0.5c0.2-0.1,0.3-0.3,0.5-0.4c0.2-0.1,0.3-0.2,0.5-0.3
			c0.2-0.1,0.5-0.2,0.8-0.2s0.5-0.1,0.8-0.1c0.1,0,0.2,0,0.3,0c0.1,0,0.2,0,0.2,0c0.1,0,0.2,0,0.2,0c0.2,0,0.5,0.1,0.8,0.2
			c0.3,0.1,0.6,0.2,0.8,0.4c0.3,0.2,0.5,0.4,0.8,0.7c0.3,0.3,0.5,0.6,0.7,0.9c0,0.1,0.1,0.1,0.1,0.2C219.9,43.3,220,43.4,220,43.4z"
			/>
	</g>
	<g>
		<rect x="181" y="15.7" class="st2" width="5.8" height="20.4"/>
		<rect x="202.2" y="17.5" class="st2" width="5.8" height="18.6"/>
		<rect x="212.9" y="7.4" class="st2" width="5.8" height="28.8"/>
		<rect x="191.6" y="1" class="st2" width="5.8" height="35.1"/>
	</g>
</g>
</svg>
